<svg xmlns="http://www.w3.org/2000/svg" version="1.1" xmlns:xlink="http://www.w3.org/1999/xlink" xmlns:svgjs="http://svgjs.dev/svgjs" width="2000" height="393" viewBox="0 0 2000 393"><g transform="matrix(1,0,0,1,-1.2121212121212466,-0.05658226989558557)"><svg viewBox="0 0 396 78" data-background-color="#ffffff" preserveAspectRatio="xMidYMid meet" height="393" width="2000" xmlns="http://www.w3.org/2000/svg" xmlns:xlink="http://www.w3.org/1999/xlink"><g id="tight-bounds" transform="matrix(1,0,0,1,0.2400000000000091,0.011230068834237272)"><svg viewBox="0 0 395.52 77.97753986233153" height="77.97753986233153" width="395.52"><g><svg viewBox="0 0 395.52 77.97753986233153" height="77.97753986233153" width="395.52"><g><svg viewBox="0 0 395.52 77.97753986233153" height="77.97753986233153" width="395.52"><g id="textblocktransform"><svg viewBox="0 0 395.52 77.97753986233153" height="77.97753986233153" width="395.52" id="textblock"><g><svg viewBox="0 0 395.52 44.03572894236858" height="44.03572894236858" width="395.52"><g transform="matrix(1,0,0,1,0,0)"><svg width="395.52" viewBox="1.4499999999999997 -37.25 397.23 43.95" height="44.03572894236858" data-palette-color="#131313"><g class="wordmark-text-0" data-fill-palette-color="primary" id="text-0"><path d="M25.05 5.95L25.05 5.95 3.75 5.95Q2.55 5.95 2 5.4 1.45 4.85 1.45 3.65L1.45 3.65 1.45-2.3Q1.45-2.95 1.63-3.4 1.8-3.85 2.15-4.15L2.15-4.15 8.2-9.25 8.2-20.4 3.75-20.4Q2.55-20.4 2-20.95 1.45-21.5 1.45-22.7L1.45-22.7 1.45-28.75Q1.45-29.4 1.63-29.85 1.8-30.3 2.15-30.6L2.15-30.6 8.6-36.05Q8.85-36.25 9.28-36.38 9.7-36.5 10.2-36.5L10.2-36.5 31.5-36.5Q32.7-36.5 33.25-35.95 33.8-35.4 33.8-34.2L33.8-34.2 33.8-28.15Q33.8-27.5 33.63-27.05 33.45-26.6 33.1-26.3L33.1-26.3 27.15-21.3 27.15-10.05 31.5-10.05Q32.7-10.05 33.25-9.5 33.8-8.95 33.8-7.75L33.8-7.75 33.8-1.8Q33.8-1.15 33.63-0.7 33.45-0.25 33.1 0.05L33.1 0.05 26.6 5.45Q26.4 5.65 25.98 5.8 25.55 5.95 25.05 5.95ZM10.2 0L10.2 0 31.5 0Q32.45 0 32.88-0.43 33.3-0.85 33.3-1.8L33.3-1.8 33.3-7.75Q33.3-8.7 32.88-9.13 32.45-9.55 31.5-9.55L31.5-9.55 26.65-9.55 26.65-26.35 31.5-26.35Q32.45-26.35 32.88-26.78 33.3-27.2 33.3-28.15L33.3-28.15 33.3-34.2Q33.3-35.15 32.88-35.58 32.45-36 31.5-36L31.5-36 10.2-36Q9.25-36 8.83-35.58 8.4-35.15 8.4-34.2L8.4-34.2 8.4-28.15Q8.4-27.2 8.83-26.78 9.25-26.35 10.2-26.35L10.2-26.35 15.15-26.35 15.15-9.55 10.2-9.55Q9.25-9.55 8.83-9.13 8.4-8.7 8.4-7.75L8.4-7.75 8.4-1.8Q8.4-0.85 8.83-0.43 9.25 0 10.2 0ZM28.8-5L28.8-4.5 12.9-4.5 12.9-5 20.65-5 20.65-31 12.9-31 12.9-31.5 28.8-31.5 28.8-31 21.15-31 21.15-5 28.8-5ZM51.05-31.1L51.05-31.1 69.45-10.4 69.45-31.5 69.95-31.5 69.95-4.5 69.45-4.5 69.45-9.65 50.55-30.85Q50.5-30.9 50.42-30.95 50.35-31 50.3-31L50.3-31Q50.25-31 50.22-30.95 50.2-30.9 50.2-30.85L50.2-30.85 50.2-4.5 49.7-4.5 49.7-30.95Q49.7-31.25 49.9-31.4 50.1-31.55 50.3-31.55L50.3-31.55Q50.5-31.55 50.65-31.45 50.8-31.35 51.05-31.1ZM46.25 0L53.75 0Q54.7 0 55.12-0.43 55.55-0.85 55.55-1.8L55.55-1.8 55.55-18.3 64.1-7.95 64.1-1.8Q64.1-0.85 64.52-0.43 64.95 0 65.9 0L65.9 0 73.4 0Q74.35 0 74.77-0.43 75.2-0.85 75.2-1.8L75.2-1.8 75.2-34.2Q75.2-35.15 74.77-35.58 74.35-36 73.4-36L73.4-36 65.9-36Q64.95-36 64.52-35.58 64.1-35.15 64.1-34.2L64.1-34.2 64.1-23.55 54.4-34.65Q53.75-35.4 53.07-35.7 52.4-36 51.45-36L51.45-36 46.25-36Q45.3-36 44.87-35.58 44.45-35.15 44.45-34.2L44.45-34.2 44.45-1.8Q44.45-0.85 44.87-0.43 45.3 0 46.25 0L46.25 0ZM55.35 0.05L55.35 0.05 48.85 5.45Q48.65 5.65 48.22 5.8 47.8 5.95 47.3 5.95L47.3 5.95 39.8 5.95Q38.6 5.95 38.05 5.4 37.5 4.85 37.5 3.65L37.5 3.65 37.5-28.75Q37.5-29.4 37.67-29.85 37.85-30.3 38.2-30.6L38.2-30.6 44.65-36.05Q44.9-36.25 45.32-36.38 45.75-36.5 46.25-36.5L46.25-36.5 51.45-36.5Q52.55-36.5 53.3-36.15 54.05-35.8 54.8-35L54.8-35 58.25-31 64.3-36.05Q64.55-36.25 64.97-36.38 65.4-36.5 65.9-36.5L65.9-36.5 73.4-36.5Q74.6-36.5 75.15-35.95 75.7-35.4 75.7-34.2L75.7-34.2 75.7-1.8Q75.7-1.15 75.52-0.7 75.35-0.25 75 0.05L75 0.05 68.5 5.45Q68.3 5.65 67.87 5.8 67.45 5.95 66.95 5.95L66.95 5.95 59.45 5.95Q58.25 5.95 57.7 5.4 57.15 4.85 57.15 3.65L57.15 3.65 57.15-2.3 56.05-3.65 56.05-1.8Q56.05-1.15 55.87-0.7 55.7-0.25 55.35 0.05ZM97.35 5.95L81.55 5.95Q80.35 5.95 79.8 5.4 79.25 4.85 79.25 3.65L79.25 3.65 79.25-2.2Q79.25-2.85 79.42-3.3 79.6-3.75 79.95-4.05L79.95-4.05 84.95-8.25Q82.3-9.05 80.77-10.98 79.25-12.9 79.25-16.5L79.25-16.5 79.25-21.75Q79.25-24 80-25.75 80.75-27.5 82.15-28.7L82.15-28.7 88.65-34.15Q90-35.25 92-35.88 94-36.5 96.55-36.5L96.55-36.5 110.55-36.5Q111.75-36.5 112.3-35.95 112.85-35.4 112.85-34.2L112.85-34.2 112.85-28.25Q112.85-27.6 112.67-27.15 112.5-26.7 112.15-26.4L112.15-26.4 107.65-22.65Q110.8-21.95 112.72-20.03 114.65-18.1 114.65-14.05L114.65-14.05 114.65-8.8Q114.65-6.55 113.9-4.8 113.15-3.05 111.7-1.85L111.7-1.85 105.25 3.55Q103.85 4.7 101.85 5.33 99.85 5.95 97.35 5.95L97.35 5.95ZM88 0L103.8 0Q108.6 0 111.37-2.27 114.15-4.55 114.15-8.8L114.15-8.8 114.15-14.05Q114.15-18.25 112-20.05 109.85-21.85 106.35-22.35L106.35-22.35 98.9-23.35Q98.25-23.4 97.9-23.85 97.55-24.3 97.55-24.95L97.55-24.95Q97.55-25.6 97.9-26.03 98.25-26.45 98.9-26.45L98.9-26.45 110.55-26.45Q111.5-26.45 111.92-26.88 112.35-27.3 112.35-28.25L112.35-28.25 112.35-34.2Q112.35-35.15 111.92-35.58 111.5-36 110.55-36L110.55-36 96.55-36Q91.7-36 88.95-33.73 86.2-31.45 86.2-27.2L86.2-27.2 86.2-21.95Q86.2-17.75 88.32-15.95 90.45-14.15 93.95-13.65L93.95-13.65 101.45-12.6Q102.1-12.55 102.42-12.15 102.75-11.75 102.75-10.9L102.75-10.9Q102.75-10.3 102.42-9.88 102.1-9.45 101.45-9.45L101.45-9.45 88-9.45Q87.05-9.45 86.62-9.03 86.2-8.6 86.2-7.65L86.2-7.65 86.2-1.8Q86.2-0.85 86.62-0.43 87.05 0 88 0L88 0ZM96.75-31.5L107.85-31.5 107.85-31 96.75-31Q94.65-31 93.4-29.85 92.15-28.7 92.15-26.95L92.15-26.95 92.15-22.85Q92.15-21.1 92.85-20.4 93.55-19.7 94.7-19.5L94.7-19.5 105.25-17.35Q106.75-17.05 107.72-16.05 108.7-15.05 108.7-12.45L108.7-12.45 108.7-9.55Q108.7-7.35 107.2-5.93 105.7-4.5 103.15-4.5L103.15-4.5 90.7-4.5 90.7-5 103.15-5Q105.45-5 106.82-6.28 108.2-7.55 108.2-9.55L108.2-9.55 108.2-12.45Q108.2-14.8 107.37-15.68 106.55-16.55 105.15-16.85L105.15-16.85 94.6-19Q93.3-19.25 92.47-20.03 91.65-20.8 91.65-22.85L91.65-22.85 91.65-26.95Q91.65-28.95 93.05-30.23 94.45-31.5 96.75-31.5L96.75-31.5ZM135.14 5.95L135.14 5.95 127.04 5.95Q125.84 5.95 125.29 5.4 124.74 4.85 124.74 3.65L124.74 3.65 124.74-20.4 117.89-20.4Q116.69-20.4 116.14-20.95 115.59-21.5 115.59-22.7L115.59-22.7 115.59-28.75Q115.59-29.4 115.77-29.85 115.94-30.3 116.29-30.6L116.29-30.6 122.74-36.05Q122.99-36.25 123.42-36.38 123.84-36.5 124.34-36.5L124.34-36.5 150.74-36.5Q151.94-36.5 152.49-35.95 153.04-35.4 153.04-34.2L153.04-34.2 153.04-28.15Q153.04-27.5 152.87-27.05 152.69-26.6 152.34-26.3L152.34-26.3 145.84-20.9Q145.64-20.7 145.22-20.55 144.79-20.4 144.29-20.4L144.29-20.4 143.89-20.4 143.89-1.8Q143.89-1.15 143.72-0.7 143.54-0.25 143.19 0.05L143.19 0.05 136.69 5.45Q136.49 5.65 136.07 5.8 135.64 5.95 135.14 5.95ZM133.49 0L141.59 0Q142.54 0 142.97-0.43 143.39-0.85 143.39-1.8L143.39-1.8 143.39-26.35 150.74-26.35Q151.69-26.35 152.12-26.78 152.54-27.2 152.54-28.15L152.54-28.15 152.54-34.2Q152.54-35.15 152.12-35.58 151.69-36 150.74-36L150.74-36 124.34-36Q123.39-36 122.97-35.58 122.54-35.15 122.54-34.2L122.54-34.2 122.54-28.15Q122.54-27.2 122.97-26.78 123.39-26.35 124.34-26.35L124.34-26.35 131.69-26.35 131.69-1.8Q131.69-0.85 132.12-0.43 132.54 0 133.49 0L133.49 0ZM137.79-4.5L137.29-4.5 137.29-31 127.04-31 127.04-31.5 148.04-31.5 148.04-31 137.79-31 137.79-4.5ZM167.44-15.15L167.44-15.15 167.44-13.6 186.94-13.6 186.94-15.15Q186.94-16.5 186.72-17.65 186.49-18.8 186.14-19.8L186.14-19.8 182.69-27.95Q182.14-29.25 181.54-30.13 180.94-31 179.54-31L179.54-31 174.64-31Q173.14-31 172.54-30.13 171.94-29.25 171.44-28L171.44-28 168.24-19.8Q167.89-18.8 167.67-17.65 167.44-16.5 167.44-15.15ZM173.09-17.9L175.44-25.5Q175.64-25.95 175.87-26.15 176.09-26.35 176.39-26.35L176.39-26.35 177.64-26.35Q177.94-26.35 178.17-26.15 178.39-25.95 178.59-25.5L178.59-25.5 180.94-17.9 173.09-17.9ZM187.44-4.5L186.94-4.5 186.94-13.1 167.44-13.1 167.44-4.5 166.94-4.5 166.94-15.15Q166.94-16.55 167.17-17.73 167.39-18.9 167.79-20L167.79-20 170.99-28.2Q171.54-29.6 172.24-30.55 172.94-31.5 174.64-31.5L174.64-31.5 179.54-31.5Q181.19-31.5 181.87-30.55 182.54-29.6 183.14-28.15L183.14-28.15 186.59-20Q186.99-18.9 187.22-17.73 187.44-16.55 187.44-15.15L187.44-15.15 187.44-4.5ZM172.59-1.8L172.59-1.8 172.59-8.8 181.44-8.8 181.44-1.8Q181.44-0.85 181.92-0.43 182.39 0 183.39 0L183.39 0 190.94 0Q191.89 0 192.32-0.43 192.74-0.85 192.74-1.8L192.74-1.8 192.74-15Q192.74-16.5 192.27-18.45 191.79-20.4 190.79-23L190.79-23 186.44-34.35Q186.14-35.2 185.52-35.6 184.89-36 183.94-36L183.94-36 170.49-36Q169.49-36 168.87-35.6 168.24-35.2 167.94-34.35L167.94-34.35 163.59-23Q162.59-20.4 162.12-18.45 161.64-16.5 161.64-15L161.64-15 161.64-1.8Q161.64-0.85 162.07-0.43 162.49 0 163.44 0L163.44 0 170.79 0Q171.74 0 172.17-0.43 172.59-0.85 172.59-1.8ZM172.39 0.05L165.89 5.45Q165.69 5.65 165.27 5.8 164.84 5.95 164.34 5.95L164.34 5.95 156.99 5.95Q155.79 5.95 155.24 5.4 154.69 4.85 154.69 3.65L154.69 3.65 154.69-9.55Q154.69-11.1 155.17-13.08 155.64-15.05 156.69-17.75L156.69-17.75 160.99-29.05Q161.14-29.5 161.37-29.83 161.59-30.15 161.84-30.4L161.84-30.4 161.89-30.45 168.29-35.8Q168.69-36.15 169.24-36.33 169.79-36.5 170.49-36.5L170.49-36.5 183.94-36.5Q185.09-36.5 185.82-36.02 186.54-35.55 186.89-34.55L186.89-34.55 191.24-23.2Q192.29-20.5 192.77-18.53 193.24-16.55 193.24-15L193.24-15 193.24-1.8Q193.24-1.15 193.07-0.7 192.89-0.25 192.54 0.05L192.54 0.05 186.04 5.45Q185.84 5.65 185.42 5.8 184.99 5.95 184.49 5.95L184.49 5.95 176.94 5.95Q175.69 5.95 175.09 5.38 174.49 4.8 174.49 3.65L174.49 3.65 174.49-2.85 173.09-2.85 173.09-1.8Q173.09-1.15 172.92-0.7 172.74-0.25 172.39 0.05L172.39 0.05ZM218.44 5.95L199.24 5.95Q198.04 5.95 197.49 5.4 196.94 4.85 196.94 3.65L196.94 3.65 196.94-28.75Q196.94-29.4 197.11-29.85 197.29-30.3 197.64-30.6L197.64-30.6 204.09-36.05Q204.34-36.25 204.76-36.38 205.19-36.5 205.69-36.5L205.69-36.5 221.64-36.5Q226.84-36.5 229.29-34.48 231.74-32.45 231.74-28.35L231.74-28.35 231.74-25.95Q231.74-24.2 231.26-22.95 230.79-21.7 229.84-20.95L229.84-20.95 229.69-20.85Q232.39-20.25 233.74-18.28 235.09-16.3 235.09-12.8L235.09-12.8 235.09-8.2Q235.09-5.95 234.44-4.33 233.79-2.7 232.49-1.6L232.49-1.6 226.04 3.85Q224.79 4.9 222.89 5.43 220.99 5.95 218.44 5.95L218.44 5.95ZM205.69 0L224.89 0Q229.84 0 232.21-2 234.59-4 234.59-8.2L234.59-8.2 234.59-12.8Q234.59-16.45 233.04-18.35 231.49-20.25 228.29-20.55L228.29-20.55Q229.79-21.2 230.51-22.53 231.24-23.85 231.24-25.95L231.24-25.95 231.24-28.35Q231.24-32.25 228.89-34.13 226.54-36 221.64-36L221.64-36 205.69-36Q204.74-36 204.31-35.58 203.89-35.15 203.89-34.2L203.89-34.2 203.89-1.8Q203.89-0.85 204.31-0.43 204.74 0 205.69 0L205.69 0ZM222.89-4.5L222.89-4.5 209.44-4.5 209.44-31.5 219.59-31.5Q221.64-31.5 222.94-31.08 224.24-30.65 224.94-29.93 225.64-29.2 225.89-28.25 226.14-27.3 226.14-26.2L226.14-26.2 226.14-23Q226.14-21.5 225.61-20.25 225.09-19 222.94-18.45L222.94-18.45Q224.99-18.45 226.29-18.03 227.59-17.6 228.29-16.82 228.99-16.05 229.21-15 229.44-13.95 229.44-12.7L229.44-12.7 229.44-9.5Q229.44-8.4 229.19-7.48 228.94-6.55 228.26-5.9 227.59-5.25 226.29-4.88 224.99-4.5 222.89-4.5ZM219.59-31L219.59-31 209.94-31 209.94-18.45 219.59-18.45Q221.64-18.45 222.84-18.82 224.04-19.2 224.66-19.83 225.29-20.45 225.46-21.28 225.64-22.1 225.64-23L225.64-23 225.64-26.2Q225.64-28.2 224.49-29.6 223.34-31 219.59-31ZM215.14-22.1L215.14-27.5 219.39-27.5Q220.34-27.5 220.81-27 221.29-26.5 221.29-25.5L221.29-25.5 221.29-24.1Q221.29-23.1 220.81-22.6 220.34-22.1 219.39-22.1L219.39-22.1 215.14-22.1ZM222.94-17.95L222.94-17.95 209.94-17.95 209.94-5 222.89-5Q226.64-5 227.79-6.23 228.94-7.45 228.94-9.5L228.94-9.5 228.94-12.7Q228.94-14.95 227.81-16.45 226.69-17.95 222.94-17.95ZM215.14-8.5L215.14-14.4 221.64-14.4Q222.59-14.4 223.06-13.93 223.54-13.45 223.54-12.45L223.54-12.45 223.54-10.5Q223.54-9.5 223.06-9 222.59-8.5 221.64-8.5L221.64-8.5 215.14-8.5ZM273.14-1.85L266.69 3.55Q264.94 5.05 261.79 5.88 258.64 6.7 253.69 6.7L253.69 6.7Q248.79 6.7 245.66 5.68 242.54 4.65 240.76 2.95 238.99 1.25 238.31-0.95 237.64-3.15 237.64-5.5L237.64-5.5 237.64-21.05Q237.64-23.35 238.29-25.33 238.94-27.3 240.64-28.7L240.64-28.7 247.14-34.1Q248.89-35.6 252.01-36.43 255.14-37.25 260.14-37.25L260.14-37.25Q265.04-37.25 268.16-36.45 271.29-35.65 273.06-34.23 274.84-32.8 275.49-30.83 276.14-28.85 276.14-26.5L276.14-26.5 276.14-9.45Q276.14-7.15 275.49-5.2 274.84-3.25 273.14-1.85L273.14-1.85ZM275.64-9.45L275.64-9.45 275.64-26.5Q275.64-28.8 274.96-30.68 274.29-32.55 272.56-33.9 270.84-35.25 267.81-36 264.79-36.75 260.14-36.75L260.14-36.75Q255.49-36.75 252.44-36 249.39-35.25 247.66-33.9 245.94-32.55 245.26-30.68 244.59-28.8 244.59-26.5L244.59-26.5 244.59-9.45Q244.59-7.15 245.26-5.28 245.94-3.4 247.66-2.08 249.39-0.75 252.44 0 255.49 0.75 260.14 0.75L260.14 0.75Q264.79 0.75 267.81 0 270.84-0.75 272.56-2.08 274.29-3.4 274.96-5.28 275.64-7.15 275.64-9.45ZM270.19-25.35L270.19-10.6Q270.19-7.6 268.04-5.73 265.89-3.85 260.04-3.85L260.04-3.85Q254.19-3.85 252.09-5.73 249.99-7.6 249.99-10.6L249.99-10.6 249.99-25.35Q249.99-28.35 252.09-30.23 254.19-32.1 260.04-32.1L260.04-32.1Q265.89-32.1 268.04-30.23 270.19-28.35 270.19-25.35L270.19-25.35ZM250.49-25.35L250.49-10.6Q250.49-7.8 252.49-6.08 254.49-4.35 260.04-4.35L260.04-4.35Q265.59-4.35 267.64-6.08 269.69-7.8 269.69-10.6L269.69-10.6 269.69-25.35Q269.69-28.15 267.64-29.88 265.59-31.6 260.04-31.6L260.04-31.6Q254.49-31.6 252.49-29.88 250.49-28.15 250.49-25.35L250.49-25.35ZM255.94-11.25L255.94-11.25 255.94-24.7Q255.94-25.65 256.69-26.33 257.44-27 260.14-27L260.14-27Q262.84-27 263.59-26.33 264.34-25.65 264.34-24.7L264.34-24.7 264.34-11.25Q264.34-10.25 263.59-9.58 262.84-8.9 260.14-8.9L260.14-8.9Q257.44-8.9 256.69-9.58 255.94-10.25 255.94-11.25ZM256.44-20.7L256.44-11.25Q256.44-10.75 256.64-10.38 256.84-10 257.39-9.75L257.39-9.75 257.39-19.25Q257.39-19.75 257.19-20.13 256.99-20.5 256.44-20.7L256.44-20.7ZM314.98-1.85L308.53 3.55Q306.78 5.05 303.63 5.88 300.48 6.7 295.53 6.7L295.53 6.7Q290.63 6.7 287.51 5.68 284.38 4.65 282.61 2.95 280.83 1.25 280.16-0.95 279.48-3.15 279.48-5.5L279.48-5.5 279.48-21.05Q279.48-23.35 280.13-25.33 280.78-27.3 282.48-28.7L282.48-28.7 288.98-34.1Q290.73-35.6 293.86-36.43 296.98-37.25 301.98-37.25L301.98-37.25Q306.88-37.25 310.01-36.45 313.13-35.65 314.91-34.23 316.68-32.8 317.33-30.83 317.98-28.85 317.98-26.5L317.98-26.5 317.98-9.45Q317.98-7.15 317.33-5.2 316.68-3.25 314.98-1.85L314.98-1.85ZM317.48-9.45L317.48-9.45 317.48-26.5Q317.48-28.8 316.81-30.68 316.13-32.55 314.41-33.9 312.68-35.25 309.66-36 306.63-36.75 301.98-36.75L301.98-36.75Q297.33-36.75 294.28-36 291.23-35.25 289.51-33.9 287.78-32.55 287.11-30.68 286.43-28.8 286.43-26.5L286.43-26.5 286.43-9.45Q286.43-7.15 287.11-5.28 287.78-3.4 289.51-2.08 291.23-0.75 294.28 0 297.33 0.75 301.98 0.75L301.98 0.75Q306.63 0.75 309.66 0 312.68-0.75 314.41-2.08 316.13-3.4 316.81-5.28 317.48-7.15 317.48-9.45ZM312.03-25.35L312.03-10.6Q312.03-7.6 309.88-5.73 307.73-3.85 301.88-3.85L301.88-3.85Q296.03-3.85 293.93-5.73 291.83-7.6 291.83-10.6L291.83-10.6 291.83-25.35Q291.83-28.35 293.93-30.23 296.03-32.1 301.88-32.1L301.88-32.1Q307.73-32.1 309.88-30.23 312.03-28.35 312.03-25.35L312.03-25.35ZM292.33-25.35L292.33-10.6Q292.33-7.8 294.33-6.08 296.33-4.35 301.88-4.35L301.88-4.35Q307.43-4.35 309.48-6.08 311.53-7.8 311.53-10.6L311.53-10.6 311.53-25.35Q311.53-28.15 309.48-29.88 307.43-31.6 301.88-31.6L301.88-31.6Q296.33-31.6 294.33-29.88 292.33-28.15 292.33-25.35L292.33-25.35ZM297.78-11.25L297.78-11.25 297.78-24.7Q297.78-25.65 298.53-26.33 299.28-27 301.98-27L301.98-27Q304.68-27 305.43-26.33 306.18-25.65 306.18-24.7L306.18-24.7 306.18-11.25Q306.18-10.25 305.43-9.58 304.68-8.9 301.98-8.9L301.98-8.9Q299.28-8.9 298.53-9.58 297.78-10.25 297.78-11.25ZM298.28-20.7L298.28-11.25Q298.28-10.75 298.48-10.38 298.68-10 299.23-9.75L299.23-9.75 299.23-19.25Q299.23-19.75 299.03-20.13 298.83-20.5 298.28-20.7L298.28-20.7ZM334.78-17.7L334.78-4.5 334.28-4.5 334.28-31.5 334.78-31.5 334.78-18.2 345.63-18.2 351.38-31.5 351.93-31.5 346.18-18.2 348.23-18.2Q351.28-18.2 352.78-17.05 354.28-15.9 354.28-13.3L354.28-13.3 354.28-4.5 353.78-4.5 353.78-13.3Q353.78-15.7 352.38-16.7 350.98-17.7 348.23-17.7L348.23-17.7 334.78-17.7ZM330.63 0L338.38 0Q339.33 0 339.76-0.43 340.18-0.85 340.18-1.8L340.18-1.8 340.18-13.25 346.78-13.25Q347.58-13.25 347.98-12.8 348.38-12.35 348.38-11.55L348.38-11.55 348.38-1.8Q348.38-0.85 348.81-0.43 349.23 0 350.18 0L350.18 0 357.88 0Q358.83 0 359.26-0.43 359.68-0.85 359.68-1.8L359.68-1.8 359.68-15.9Q359.68-18.9 358.01-20.73 356.33-22.55 353.53-22.7L353.53-22.7 358.63-34.35Q358.98-35.15 358.68-35.58 358.38-36 357.53-36L357.53-36 349.83-36Q348.88-36 348.28-35.63 347.68-35.25 347.33-34.35L347.33-34.35 342.18-22.7 340.18-22.7 340.18-34.2Q340.18-35.15 339.76-35.58 339.33-36 338.38-36L338.38-36 330.63-36Q329.68-36 329.26-35.58 328.83-35.15 328.83-34.2L328.83-34.2 328.83-1.8Q328.83-0.85 329.26-0.43 329.68 0 330.63 0L330.63 0ZM339.98 0.05L339.98 0.05 333.48 5.45Q333.28 5.65 332.86 5.8 332.43 5.95 331.93 5.95L331.93 5.95 324.18 5.95Q322.98 5.95 322.43 5.4 321.88 4.85 321.88 3.65L321.88 3.65 321.88-28.75Q321.88-29.4 322.06-29.85 322.23-30.3 322.58-30.6L322.58-30.6 329.03-36.05Q329.28-36.25 329.71-36.38 330.13-36.5 330.63-36.5L330.63-36.5 338.38-36.5Q339.58-36.5 340.13-35.95 340.68-35.4 340.68-34.2L340.68-34.2 340.68-29.65Q340.83-29.85 340.98-30.08 341.13-30.3 341.33-30.45L341.33-30.45 347.78-35.9Q348.13-36.2 348.66-36.35 349.18-36.5 349.83-36.5L349.83-36.5 357.53-36.5Q358.78-36.5 359.18-35.88 359.58-35.25 359.08-34.15L359.08-34.15 354.28-23.15Q356.98-22.8 358.58-20.85 360.18-18.9 360.18-15.9L360.18-15.9 360.18-1.8Q360.18-1.15 360.01-0.7 359.83-0.25 359.48 0.05L359.48 0.05 352.98 5.45Q352.78 5.65 352.36 5.8 351.93 5.95 351.43 5.95L351.43 5.95 343.73 5.95Q342.53 5.95 341.98 5.4 341.43 4.85 341.43 3.65L341.43 3.65 341.43-6.1Q341.43-6.6 341.23-6.9 341.03-7.2 340.68-7.25L340.68-7.25 340.68-1.8Q340.68-1.15 340.51-0.7 340.33-0.25 339.98 0.05ZM381.38 5.95L365.58 5.95Q364.38 5.95 363.83 5.4 363.28 4.85 363.28 3.65L363.28 3.65 363.28-2.2Q363.28-2.85 363.45-3.3 363.63-3.75 363.98-4.05L363.98-4.05 368.98-8.25Q366.33-9.05 364.8-10.98 363.28-12.9 363.28-16.5L363.28-16.5 363.28-21.75Q363.28-24 364.03-25.75 364.78-27.5 366.18-28.7L366.18-28.7 372.68-34.15Q374.03-35.25 376.03-35.88 378.03-36.5 380.58-36.5L380.58-36.5 394.58-36.5Q395.78-36.5 396.33-35.95 396.88-35.4 396.88-34.2L396.88-34.2 396.88-28.25Q396.88-27.6 396.7-27.15 396.53-26.7 396.18-26.4L396.18-26.4 391.68-22.65Q394.83-21.95 396.75-20.03 398.68-18.1 398.68-14.05L398.68-14.05 398.68-8.8Q398.68-6.55 397.93-4.8 397.18-3.05 395.73-1.85L395.73-1.85 389.28 3.55Q387.88 4.7 385.88 5.33 383.88 5.95 381.38 5.95L381.38 5.95ZM372.03 0L387.83 0Q392.63 0 395.4-2.27 398.18-4.55 398.18-8.8L398.18-8.8 398.18-14.05Q398.18-18.25 396.03-20.05 393.88-21.85 390.38-22.35L390.38-22.35 382.93-23.35Q382.28-23.4 381.93-23.85 381.58-24.3 381.58-24.95L381.58-24.95Q381.58-25.6 381.93-26.03 382.28-26.45 382.93-26.45L382.93-26.45 394.58-26.45Q395.53-26.45 395.95-26.88 396.38-27.3 396.38-28.25L396.38-28.25 396.38-34.2Q396.38-35.15 395.95-35.58 395.53-36 394.58-36L394.58-36 380.58-36Q375.73-36 372.98-33.73 370.23-31.45 370.23-27.2L370.23-27.2 370.23-21.95Q370.23-17.75 372.35-15.95 374.48-14.15 377.98-13.65L377.98-13.65 385.48-12.6Q386.13-12.55 386.45-12.15 386.78-11.75 386.78-10.9L386.78-10.9Q386.78-10.3 386.45-9.88 386.13-9.45 385.48-9.45L385.48-9.45 372.03-9.45Q371.08-9.45 370.65-9.03 370.23-8.6 370.23-7.65L370.23-7.65 370.23-1.8Q370.23-0.85 370.65-0.43 371.08 0 372.03 0L372.03 0ZM380.78-31.5L391.88-31.5 391.88-31 380.78-31Q378.68-31 377.43-29.85 376.18-28.7 376.18-26.95L376.18-26.95 376.18-22.85Q376.18-21.1 376.88-20.4 377.58-19.7 378.73-19.5L378.73-19.5 389.28-17.35Q390.78-17.05 391.75-16.05 392.73-15.05 392.73-12.45L392.73-12.45 392.73-9.55Q392.73-7.35 391.23-5.93 389.73-4.5 387.18-4.5L387.18-4.5 374.73-4.5 374.73-5 387.18-5Q389.48-5 390.85-6.28 392.23-7.55 392.23-9.55L392.23-9.55 392.23-12.45Q392.23-14.8 391.4-15.68 390.58-16.55 389.18-16.85L389.18-16.85 378.63-19Q377.33-19.25 376.5-20.03 375.68-20.8 375.68-22.85L375.68-22.85 375.68-26.95Q375.68-28.95 377.08-30.23 378.48-31.5 380.78-31.5L380.78-31.5Z" fill="#131313" data-fill-palette-color="primary"></path></g></svg></g></svg></g><g transform="matrix(1,0,0,1,75.54432,54.43150768816719)"><svg viewBox="0 0 244.43135999999998 23.546032174164342" height="23.546032174164342" width="244.43135999999998"><g transform="matrix(1,0,0,1,0,0)"><svg width="244.43135999999998" viewBox="0.9 -38.8 519 49.99999999999999" height="23.546032174164342" data-palette-color="#131313"><path d="M15.4 0L8.95 0 8.95-29.2 0.9-29.2 0.9-34.85 23.45-34.85 23.45-29.2 15.4-29.2 15.4 0ZM34.4 0L28.25 0 28.25-38.1 34.15-38.1 34.15-25.5 34.02-21.75Q35.02-23.2 36.82-24.35 38.62-25.5 41.6-25.5L41.6-25.5Q45.35-25.5 47.2-23.1 49.05-20.7 49.05-16.45L49.05-16.45 49.05 0 42.65 0 42.65-15.8Q42.65-17.88 41.66-19.16 40.67-20.45 38.9-20.45L38.9-20.45Q37.15-20.45 35.77-19.16 34.4-17.88 34.4-15.8L34.4-15.8 34.4 0ZM66.75 0.65L66.75 0.65Q62.55 0.65 59.97-1.11 57.4-2.88 56.22-5.79 55.05-8.7 55.05-12.15L55.05-12.15Q55.05-15.78 56.38-18.81 57.72-21.85 60.31-23.68 62.9-25.5 66.65-25.5L66.65-25.5Q72.25-25.5 74.47-22.26 76.7-19.03 76.7-13.1L76.7-13.1Q76.7-12.58 76.67-11.78 76.65-10.98 76.6-10.4L76.6-10.4 61.6-10.4Q61.75-7.45 63.26-5.78 64.77-4.1 67.8-4.1L67.8-4.1Q69.35-4.1 71.12-4.79 72.9-5.48 73.75-6.45L73.75-6.45 75.75-1.7Q74.75-1.03 72.58-0.19 70.42 0.65 66.75 0.65ZM61.55-14.3L61.55-14.3 70.35-14.3Q70.35-16.93 69.88-18.31 69.42-19.7 68.62-20.23 67.82-20.75 66.8-20.75L66.8-20.75Q64.25-20.75 62.97-18.86 61.7-16.98 61.55-14.3ZM98.89-28.95L91.89-28.95 91.89-35.6 98.89-35.6 98.89-28.95ZM98.64 0L92.14 0 92.14-24.9 98.64-24.9 98.64 0ZM112.49 0L106.09 0 106.09-24.9 111.89-24.9 112.01-21.63Q112.99-23.13 114.74-24.31 116.49-25.5 119.34-25.5L119.34-25.5Q123.14-25.5 124.99-23.1 126.84-20.7 126.84-16.45L126.84-16.45 126.84 0 120.44 0 120.44-15.9Q120.44-17.98 119.56-19.26 118.69-20.55 116.89-20.55L116.89-20.55Q115.14-20.55 113.81-19.26 112.49-17.98 112.49-15.9L112.49-15.9 112.49 0ZM140.84 0.45L140.84 0.45Q138.11 0.45 136.37-0.06 134.64-0.58 133.67-1.24 132.71-1.9 132.34-2.35L132.34-2.35 134.19-7.1Q135.29-6.2 137-5.33 138.71-4.45 140.99-4.45L140.99-4.45Q142.76-4.45 143.47-5.18 144.19-5.9 144.19-6.75L144.19-6.75Q144.19-7.93 142.56-8.88 140.94-9.83 138.79-10.75L138.79-10.75Q137.51-11.3 136.09-12.15 134.66-13 133.65-14.4 132.64-15.8 132.64-18L132.64-18Q132.64-21.38 135.1-23.39 137.56-25.4 142.09-25.4L142.09-25.4Q144.99-25.4 147-24.54 149.01-23.68 149.69-23L149.69-23 147.99-18.5Q147.01-19.25 145.51-19.93 144.01-20.6 142.29-20.6L142.29-20.6Q140.39-20.6 139.64-20.1 138.89-19.6 138.89-18.5L138.89-18.5Q138.89-17.28 140.22-16.49 141.56-15.7 143.44-14.95L143.44-14.95Q146.56-13.73 148.47-11.94 150.39-10.15 150.39-7.4L150.39-7.4Q150.39-5.35 149.44-3.56 148.49-1.78 146.39-0.66 144.29 0.45 140.84 0.45ZM164.08 0.75L164.08 0.75Q159.86 0.75 158.37-1.45 156.88-3.65 156.88-8.1L156.88-8.1 156.88-19.65 153.63-19.65 153.63-24.9 157.13-24.9 157.48-30.15 162.93-32.5 162.93-24.9 169.08-24.9 169.08-19.65 162.93-19.65 162.93-8.25Q162.93-6.08 163.55-5.24 164.16-4.4 165.23-4.4L165.23-4.4Q166.33-4.4 167.56-4.98 168.78-5.55 169.48-6.15L169.48-6.15 170.68-1.1Q169.91-0.55 168.67-0.14 167.43 0.28 166.17 0.51 164.91 0.75 164.08 0.75ZM180.33 0.7L180.33 0.7Q178.03 0.7 176.52-0.33 175.01-1.35 174.27-3.05 173.53-4.75 173.53-6.8L173.53-6.8Q173.53-7.95 174.12-9.33 174.71-10.7 176.21-11.95 177.71-13.2 180.43-14 183.16-14.8 187.43-14.8L187.43-14.8 187.43-15.95Q187.43-17.8 186.54-19.03 185.66-20.25 182.98-20.25L182.98-20.25Q181.03-20.25 179.17-19.59 177.31-18.93 176.43-17.95L176.43-17.95 174.43-22.75Q175.93-23.78 178.44-24.64 180.96-25.5 184.03-25.5L184.03-25.5Q187.73-25.5 189.78-24.38 191.83-23.25 192.66-21.19 193.48-19.13 193.48-16.35L193.48-16.35 193.48 0 188.13 0 187.68-3.55Q185.08 0.7 180.33 0.7ZM182.98-4.1L182.98-4.1Q184.11-4.1 185.39-5.01 186.68-5.93 187.43-7.35L187.43-7.35 187.43-10.9Q187.18-10.95 186.89-10.95 186.61-10.95 186.23-10.95L186.23-10.95Q184.86-10.95 183.34-10.64 181.83-10.33 180.78-9.55 179.73-8.78 179.73-7.4L179.73-7.4Q179.73-5.6 180.53-4.85 181.33-4.1 182.98-4.1ZM200.83 9L203.63 4.3Q204.53 4.85 205.82 5.3 207.1 5.75 208.83 5.75L208.83 5.75Q212.03 5.75 213.63 4.09 215.23 2.43 215.23-1.2L215.23-1.2 215.23-5.1Q214.88-3.83 214.13-2.58 213.38-1.33 212.07-0.51 210.75 0.3 208.73 0.3L208.73 0.3Q205.9 0.3 203.62-0.99 201.33-2.27 199.98-5.08 198.63-7.88 198.63-12.4L198.63-12.4Q198.63-17 199.97-19.89 201.3-22.78 203.57-24.14 205.83-25.5 208.58-25.5L208.58-25.5Q211.65-25.5 213.28-23.95 214.9-22.4 215.23-20.6L215.23-20.6 215.93-24.9 220.83-24.9 220.83-1.2Q220.83 4.53 217.94 7.86 215.05 11.2 209.43 11.2L209.43 11.2Q206.4 11.2 204.18 10.44 201.95 9.68 200.83 9L200.83 9ZM209.98-4.6L209.98-4.6Q212.15-4.6 213.39-6.66 214.63-8.72 214.63-12.5L214.63-12.5Q214.63-16.07 213.55-18.26 212.48-20.45 210.18-20.45L210.18-20.45Q208.9-20.45 207.74-19.69 206.58-18.93 205.83-17.18 205.08-15.43 205.08-12.45L205.08-12.45Q205.08-8.4 206.47-6.5 207.85-4.6 209.98-4.6ZM234.08 0L227.83 0 227.83-24.9 233.48-24.9 233.78-20.5Q234.18-21.48 235.01-22.58 235.85-23.68 237.34-24.44 238.83-25.2 241.18-25.2L241.18-25.2Q241.9-25.2 242.45-25.1 243-25 243.48-24.8L243.48-24.8 242.08-18.25Q241.28-19.05 239.63-19.05L239.63-19.05Q237.7-19.05 236.48-18.26 235.25-17.48 234.66-16.5 234.08-15.53 234.08-15L234.08-15 234.08 0ZM252.17 0.7L252.17 0.7Q249.87 0.7 248.36-0.33 246.85-1.35 246.11-3.05 245.37-4.75 245.37-6.8L245.37-6.8Q245.37-7.95 245.96-9.33 246.55-10.7 248.05-11.95 249.55-13.2 252.27-14 255-14.8 259.27-14.8L259.27-14.8 259.27-15.95Q259.27-17.8 258.39-19.03 257.5-20.25 254.82-20.25L254.82-20.25Q252.87-20.25 251.01-19.59 249.15-18.93 248.27-17.95L248.27-17.95 246.27-22.75Q247.77-23.78 250.29-24.64 252.8-25.5 255.87-25.5L255.87-25.5Q259.57-25.5 261.62-24.38 263.67-23.25 264.5-21.19 265.32-19.13 265.32-16.35L265.32-16.35 265.32 0 259.97 0 259.52-3.55Q256.92 0.7 252.17 0.7ZM254.82-4.1L254.82-4.1Q255.95-4.1 257.24-5.01 258.52-5.93 259.27-7.35L259.27-7.35 259.27-10.9Q259.02-10.95 258.74-10.95 258.45-10.95 258.07-10.95L258.07-10.95Q256.7-10.95 255.19-10.64 253.67-10.33 252.62-9.55 251.57-8.78 251.57-7.4L251.57-7.4Q251.57-5.6 252.37-4.85 253.17-4.1 254.82-4.1ZM278.42 0L272.02 0 272.02-24.9 277.77-24.9 277.92-21.6Q278.9-23.1 280.63-24.3 282.37-25.5 285.27-25.5L285.27-25.5Q287.8-25.5 289.47-24.38 291.15-23.25 292-21.2L292-21.2Q292.95-22.78 294.73-24.14 296.52-25.5 299.72-25.5L299.72-25.5Q303.47-25.5 305.32-23.1 307.17-20.7 307.17-16.45L307.17-16.45 307.17 0 300.82 0 300.82-15.8Q300.82-17.88 300.02-19.16 299.22-20.45 297.42-20.45L297.42-20.45Q295.67-20.45 294.25-19.16 292.82-17.88 292.82-15.8L292.82-15.8 292.82 0 286.42 0 286.42-15.8Q286.42-17.88 285.51-19.21 284.6-20.55 282.82-20.55L282.82-20.55Q281.02-20.55 279.72-19.21 278.42-17.88 278.42-15.8L278.42-15.8 278.42 0ZM330.27 0L324.22 0 324.22-19.65 320.87-19.65 320.87-24.9 324.22-24.9 324.22-29.5Q324.22-32.4 325.05-34.23 325.89-36.05 327.19-37.04 328.49-38.02 329.95-38.41 331.42-38.8 332.67-38.8L332.67-38.8Q335.12-38.8 336.35-38.36 337.59-37.93 337.82-37.7L337.82-37.7 337.82-32.25Q337.27-32.98 336.14-33.31 335.02-33.65 334.22-33.65L334.22-33.65Q333.29-33.65 332.38-33.35 331.47-33.05 330.87-32.19 330.27-31.33 330.27-29.65L330.27-29.65 330.27-24.9 336.32-24.9 336.32-19.65 330.27-19.65 330.27 0ZM349.71 0.5L349.71 0.5Q344.21 0.5 341.21-2.95 338.21-6.4 338.21-12.5L338.21-12.5Q338.21-18.65 341.31-22.08 344.41-25.5 349.91-25.5L349.91-25.5Q355.44-25.5 358.33-21.96 361.21-18.43 361.21-12.5L361.21-12.5Q361.21-6.58 358.23-3.04 355.24 0.5 349.71 0.5ZM349.81-4.5L349.81-4.5Q354.56-4.5 354.56-12.5L354.56-12.5Q354.56-20.55 349.81-20.55L349.81-20.55Q347.46-20.55 346.16-18.69 344.86-16.82 344.86-12.5L344.86-12.5Q344.86-8.2 346.16-6.35 347.46-4.5 349.81-4.5ZM373.01 0L366.76 0 366.76-24.9 372.41-24.9 372.71-20.5Q373.11-21.48 373.95-22.58 374.79-23.68 376.27-24.44 377.76-25.2 380.11-25.2L380.11-25.2Q380.84-25.2 381.39-25.1 381.94-25 382.41-24.8L382.41-24.8 381.01-18.25Q380.21-19.05 378.56-19.05L378.56-19.05Q376.64-19.05 375.41-18.26 374.19-17.48 373.6-16.5 373.01-15.53 373.01-15L373.01-15 373.01 0ZM408.01 0.7L408.01 0.7Q405.31 0.7 403.59-1 401.88-2.7 401.31-4.95L401.31-4.95 401.31 0 395.81 0 395.81-38 401.81-38 401.81-24.9 401.31-20.6Q401.71-22.3 402.89-23.4 404.08-24.5 405.61-25.03 407.13-25.55 408.56-25.55L408.56-25.55Q413.21-25.55 415.58-22.26 417.96-18.98 417.96-12.55L417.96-12.55Q417.96-8.08 416.62-5.14 415.28-2.2 413.02-0.75 410.76 0.7 408.01 0.7ZM406.56-4.25L406.56-4.25Q407.78-4.25 408.89-5.06 410.01-5.88 410.71-7.7 411.41-9.53 411.41-12.55L411.41-12.55Q411.41-16.75 409.99-18.6 408.58-20.45 406.66-20.45L406.66-20.45Q404.33-20.45 403.12-18.06 401.91-15.68 401.91-12.15L401.91-12.15Q401.91-8.63 403.14-6.44 404.38-4.25 406.56-4.25ZM433.7 0.5L433.7 0.5Q428.2 0.5 425.2-2.95 422.2-6.4 422.2-12.5L422.2-12.5Q422.2-18.65 425.3-22.08 428.4-25.5 433.9-25.5L433.9-25.5Q439.43-25.5 442.32-21.96 445.2-18.43 445.2-12.5L445.2-12.5Q445.2-6.58 442.22-3.04 439.23 0.5 433.7 0.5ZM433.8-4.5L433.8-4.5Q438.55-4.5 438.55-12.5L438.55-12.5Q438.55-20.55 433.8-20.55L433.8-20.55Q431.45-20.55 430.15-18.69 428.85-16.82 428.85-12.5L428.85-12.5Q428.85-8.2 430.15-6.35 431.45-4.5 433.8-4.5ZM460.9 0.5L460.9 0.5Q455.4 0.5 452.4-2.95 449.4-6.4 449.4-12.5L449.4-12.5Q449.4-18.65 452.5-22.08 455.6-25.5 461.1-25.5L461.1-25.5Q466.63-25.5 469.51-21.96 472.4-18.43 472.4-12.5L472.4-12.5Q472.4-6.58 469.41-3.04 466.43 0.5 460.9 0.5ZM461-4.5L461-4.5Q465.75-4.5 465.75-12.5L465.75-12.5Q465.75-20.55 461-20.55L461-20.55Q458.65-20.55 457.35-18.69 456.05-16.82 456.05-12.5L456.05-12.5Q456.05-8.2 457.35-6.35 458.65-4.5 461-4.5ZM484.3 0L478.4 0 478.4-38 484.3-38 484.3-19.35 484.1-13.5 491.75-24.9 498.85-24.9 490.15-13.45 499.7 0 492.15 0 484.1-12.05 484.3-5.95 484.3 0ZM510.35 0.45L510.35 0.45Q507.62 0.45 505.88-0.06 504.15-0.58 503.18-1.24 502.22-1.9 501.85-2.35L501.85-2.35 503.7-7.1Q504.8-6.2 506.51-5.33 508.22-4.45 510.5-4.45L510.5-4.45Q512.27-4.45 512.98-5.18 513.7-5.9 513.7-6.75L513.7-6.75Q513.7-7.93 512.07-8.88 510.45-9.83 508.3-10.75L508.3-10.75Q507.02-11.3 505.6-12.15 504.17-13 503.16-14.4 502.15-15.8 502.15-18L502.15-18Q502.15-21.38 504.61-23.39 507.07-25.4 511.6-25.4L511.6-25.4Q514.5-25.4 516.51-24.54 518.52-23.68 519.2-23L519.2-23 517.5-18.5Q516.52-19.25 515.02-19.93 513.52-20.6 511.8-20.6L511.8-20.6Q509.9-20.6 509.15-20.1 508.4-19.6 508.4-18.5L508.4-18.5Q508.4-17.28 509.73-16.49 511.07-15.7 512.95-14.95L512.95-14.95Q516.07-13.73 517.98-11.94 519.9-10.15 519.9-7.4L519.9-7.4Q519.9-5.35 518.95-3.56 518-1.78 515.9-0.66 513.8 0.45 510.35 0.45Z" opacity="1" transform="matrix(1,0,0,1,0,0)" fill="#131313" class="slogan-text-1" data-fill-palette-color="secondary" id="text-1"></path></svg></g></svg></g></svg></g></svg></g></svg></g><defs></defs></svg><rect width="395.52" height="77.97753986233153" fill="none" stroke="none" visibility="hidden"></rect></g></svg></g></svg>